# xmcd
#
# Track frame offsets:
# 150
# 17600
# 37679
# 53781
#
# Disc length: 1048 seconds
#
#
# Revision: 3
# Processed by: cddbd v1.5.2PL0 Copyright (c) Steve Scherf et al.
# Submitted via: FreeRIP 2.53 
#
DISCID=21041604
DTITLE=Sheryl Crow - What I Can Do For You
DYEAR=1995
DGENRE=Rock
TTITLE0=What I Can Do For You (UK Edit)
TTITLE1=D'yer Mak'er
TTITLE2=I'm Gonna Be A Wheel Someday
TTITLE3=No-One Said It Would Be Easy
EXTD=
EXTT0=
EXTT1=
EXTT2=
EXTT3=
PLAYORDER=
